<svg width="22" height="14" viewBox="0 0 22 14" fill="none" xmlns="http://www.w3.org/2000/svg">
<path id="Vector" d="M8.8376 6.27157C10.0285 5.70145 10.7179 4.8146 10.7179 3.42097C10.7179 0.697061 8.71223 0 6.39314 0H0V13.6833H6.5812C9.02565 13.6833 11.3447 12.4792 11.3447 9.69193C11.282 8.04491 10.4672 6.77835 8.8376 6.27157ZM2.94584 2.34395H5.76636C6.83188 2.34395 7.83476 2.66069 7.83476 3.92762C7.83476 5.06786 7.08261 5.57439 6.01708 5.57439H3.0085V2.34395H2.94584ZM6.14241 11.4024H2.94584V7.60161H6.20507C7.52131 7.60161 8.33614 8.1721 8.33614 9.56573C8.33614 10.9594 7.33329 11.4024 6.14241 11.4024ZM19.8063 2.09032H14.2906V0.760285H19.8063V2.09032ZM22 8.93226C22 6.01831 20.3077 3.54779 17.2365 3.54779C14.2279 3.54779 12.2222 5.82815 12.2222 8.80544C12.2222 11.9094 14.1653 14 17.2365 14C19.5556 14 21.1225 12.9226 21.8119 10.6421H19.4302C19.1795 11.4656 18.114 11.9091 17.2991 11.9091C15.7322 11.9091 14.9173 10.9589 14.9173 9.37519H22C22 9.2485 22 9.05895 22 8.93226ZM14.9173 7.72843C14.98 6.39814 15.8575 5.63811 17.1737 5.63811C18.5527 5.63811 19.1795 6.46149 19.3048 7.72843H14.9173Z" fill="#00042D"/>
</svg>
