<svg width="24" height="17" viewBox="0 0 24 17" fill="none" xmlns="http://www.w3.org/2000/svg">
<path id="Vector" d="M23.492 2.67374C23.2381 1.65498 22.4127 0.827615 21.3968 0.509254C19.4921 -0.000124368 12 0 12 0C12 0 4.50799 -0.000124368 2.60323 0.509254C1.58736 0.763943 0.761935 1.59131 0.507967 2.67374C3.09944e-05 4.58391 0 8.53171 0 8.53171C0 8.53171 3.09944e-05 12.4795 0.507967 14.3897C0.761935 15.4084 1.58736 16.2361 2.60323 16.4907C4.50799 17.0001 12 17 12 17C12 17 19.4921 17.0001 21.3968 16.4907C22.4127 16.2361 23.2381 15.4084 23.492 14.3897C24 12.4795 24 8.53171 24 8.53171C24 8.53171 24 4.58391 23.492 2.67374ZM9.5238 12.0977V4.90227L15.8095 8.46829L9.5238 12.0977Z" fill="#00042D"/>
</svg>
