<svg width="19" height="15" viewBox="0 0 19 15" fill="none" xmlns="http://www.w3.org/2000/svg">
<path id="Vector" d="M17.0367 3.70373C17.0367 3.88892 17.0367 4.01226 17.0367 4.19744C17.0367 9.19748 13.11 15 5.95335 15C3.73668 15 1.71 14.3828 0 13.2717C0.316667 13.3334 0.633333 13.3338 0.95 13.3338C2.78667 13.3338 4.43332 12.7162 5.76332 11.7285C4.05332 11.6668 2.59668 10.6175 2.15335 9.07427C2.40668 9.136 2.65998 9.13575 2.91332 9.13575C3.29332 9.13575 3.60997 9.07451 3.92664 9.01278C2.1533 8.64241 0.823364 7.16091 0.823364 5.30905V5.24696C1.33003 5.5556 1.96332 5.67894 2.59665 5.74067C1.51998 5.06165 0.886682 3.88904 0.886682 2.59273C0.886682 1.91372 1.07664 1.23494 1.3933 0.679379C3.2933 2.96335 6.20668 4.50621 9.43668 4.62967C9.37335 4.32102 9.30997 4.07447 9.30997 3.76582C9.30997 1.66704 11.02 0 13.1734 0C14.3134 0 15.3267 0.432343 16.0234 1.17309C16.91 0.987903 17.7333 0.679259 18.4933 0.247157C18.1766 1.11136 17.6067 1.85175 16.7833 2.34558C17.5433 2.28385 18.3033 2.03693 19 1.72829C18.4933 2.46903 17.7967 3.14817 17.0367 3.70373Z" fill="#00042D"/>
</svg>
